# Blender v2.76 (sub 0) OBJ File: 'targetArrow.blend'
# www.blender.org
o Cylinder
v -3.000000 0.000000 8.000000
v -2.942356 -0.585271 8.000000
v -2.771638 -1.148050 8.000000
v -2.494409 -1.666711 8.000000
v -2.121320 -2.121320 8.000000
v -1.666710 -2.494409 8.000000
v -1.148050 -2.771638 8.000000
v -0.585271 -2.942356 8.000000
v -0.000000 -3.000000 8.000000
v -0.000001 -0.000000 0.000004
v 0.585271 -2.942356 8.000000
v 1.148050 -2.771639 8.000000
v 1.666711 -2.494409 8.000000
v 2.121320 -2.121320 8.000000
v 2.494409 -1.666711 8.000000
v 2.771639 -1.148050 8.000000
v 2.942356 -0.585270 8.000000
v 3.000000 0.000001 8.000000
v 2.942356 0.585272 8.000000
v 2.771638 1.148052 8.000000
v 2.494408 1.666712 8.000000
v 2.121319 2.121322 8.000000
v 1.666709 2.494410 8.000000
v 1.148048 2.771640 8.000000
v 0.585269 2.942356 8.000000
v -0.000003 3.000000 8.000000
v -0.585274 2.942355 8.000000
v -1.148053 2.771637 8.000000
v -1.666713 2.494407 8.000000
v -2.121323 2.121318 8.000000
v -2.494411 1.666707 8.000000
v -2.771640 1.148046 8.000000
v -2.942357 0.585267 8.000000
v 1.400000 -0.000000 8.000000
v 1.400000 -0.000000 18.000000
v 1.373100 -0.273127 8.000000
v 1.373099 -0.273127 18.000000
v 1.293432 -0.535757 8.000000
v 1.293431 -0.535757 18.000000
v 1.164058 -0.777798 8.000000
v 1.164057 -0.777798 18.000000
v 0.989950 -0.989950 8.000000
v 0.989949 -0.989950 18.000000
v 0.777799 -1.164057 8.000000
v 0.777798 -1.164057 18.000000
v 0.535757 -1.293431 8.000000
v 0.535757 -1.293431 18.000000
v 0.273127 -1.373099 8.000000
v 0.273126 -1.373099 18.000000
v 0.000000 -1.400000 8.000000
v 0.000000 -1.400000 18.000000
v -0.273126 -1.373099 8.000000
v -0.273126 -1.373099 18.000000
v -0.535756 -1.293431 8.000000
v -0.535757 -1.293431 18.000000
v -0.777798 -1.164057 8.000000
v -0.777798 -1.164057 18.000000
v -0.989949 -0.989950 8.000000
v -0.989950 -0.989950 18.000000
v -1.164057 -0.777798 8.000000
v -1.164058 -0.777798 18.000000
v -1.293431 -0.535757 8.000000
v -1.293432 -0.535757 18.000000
v -1.373099 -0.273126 8.000000
v -1.373099 -0.273126 18.000000
v -1.400000 0.000000 8.000000
v -1.400000 0.000000 18.000000
v -1.373099 0.273127 8.000000
v -1.373099 0.273127 18.000000
v -1.293431 0.535757 8.000000
v -1.293431 0.535757 18.000000
v -1.164057 0.777799 8.000000
v -1.164057 0.777799 18.000000
v -0.989948 0.989950 8.000000
v -0.989949 0.989950 18.000000
v -0.777797 1.164058 8.000000
v -0.777797 1.164058 18.000000
v -0.535755 1.293432 8.000000
v -0.535756 1.293432 18.000000
v -0.273125 1.373100 8.000000
v -0.273125 1.373100 18.000000
v 0.000002 1.400000 8.000000
v 0.000001 1.400000 18.000000
v 0.273128 1.373099 8.000000
v 0.273128 1.373099 18.000000
v 0.535759 1.293431 8.000000
v 0.535758 1.293431 18.000000
v 0.777800 1.164056 8.000000
v 0.777800 1.164056 18.000000
v 0.989951 0.989948 8.000000
v 0.989951 0.989948 18.000000
v 1.164059 0.777797 8.000000
v 1.164058 0.777797 18.000000
v 1.293432 0.535755 8.000000
v 1.293432 0.535755 18.000000
v 1.373100 0.273124 8.000000
v 1.373100 0.273124 18.000000
v -3.000000 0.000000 8.000000
v -2.942356 -0.585271 8.000000
v -2.771638 -1.148050 8.000000
v -2.494409 -1.666711 8.000000
v -2.121320 -2.121320 8.000000
v -1.666710 -2.494409 8.000000
v -1.148050 -2.771638 8.000000
v -0.585271 -2.942356 8.000000
v -0.000000 -3.000000 8.000000
v 0.585271 -2.942356 8.000000
v 1.148050 -2.771639 8.000000
v 1.666711 -2.494409 8.000000
v 2.121320 -2.121320 8.000000
v 2.494409 -1.666711 8.000000
v 2.771639 -1.148050 8.000000
v 2.942356 -0.585270 8.000000
v 3.000000 0.000001 8.000000
v 2.942356 0.585272 8.000000
v 2.771638 1.148052 8.000000
v 2.494408 1.666712 8.000000
v 2.121319 2.121322 8.000000
v 1.666709 2.494410 8.000000
v 1.148048 2.771640 8.000000
v 0.585269 2.942356 8.000000
v -0.000003 3.000000 8.000000
v -0.585274 2.942355 8.000000
v -1.148053 2.771637 8.000000
v -1.666713 2.494407 8.000000
v -2.121323 2.121318 8.000000
v -2.494411 1.666707 8.000000
v -2.771640 1.148046 8.000000
v -2.942357 0.585267 8.000000
v 1.400000 -0.000000 18.000000
v 1.373099 -0.273127 18.000000
v 1.293431 -0.535757 18.000000
v 1.164057 -0.777798 18.000000
v 0.989949 -0.989950 18.000000
v 0.777798 -1.164057 18.000000
v 0.535757 -1.293431 18.000000
v 0.273126 -1.373099 18.000000
v 0.000000 -1.400000 18.000000
v -0.273126 -1.373099 18.000000
v -0.535757 -1.293431 18.000000
v -0.777798 -1.164057 18.000000
v -0.989950 -0.989950 18.000000
v -1.164058 -0.777798 18.000000
v -1.293432 -0.535757 18.000000
v -1.373099 -0.273126 18.000000
v -1.400000 0.000000 18.000000
v -1.373099 0.273127 18.000000
v -1.293431 0.535757 18.000000
v -1.164057 0.777799 18.000000
v -0.989949 0.989950 18.000000
v -0.777797 1.164058 18.000000
v -0.535756 1.293432 18.000000
v -0.273125 1.373100 18.000000
v 0.000001 1.400000 18.000000
v 0.273128 1.373099 18.000000
v 0.535758 1.293431 18.000000
v 0.777800 1.164056 18.000000
v 0.989951 0.989948 18.000000
v 1.164058 0.777797 18.000000
v 1.293432 0.535755 18.000000
v 1.373100 0.273124 18.000000
v -0.000001 -0.000000 0.000004
v -0.000001 -0.000000 0.000004
v -0.000001 -0.000000 0.000004
v -0.000001 -0.000000 0.000004
v -0.000001 -0.000000 0.000004
v -0.000001 -0.000000 0.000004
v -0.000001 -0.000000 0.000004
v -0.000001 -0.000000 0.000004
v -0.000001 -0.000000 0.000004
v -0.000001 -0.000000 0.000004
v -0.000001 -0.000000 0.000004
v -0.000001 -0.000000 0.000004
v -0.000001 -0.000000 0.000004
v -0.000001 -0.000000 0.000004
v -0.000001 -0.000000 0.000004
v -0.000001 -0.000000 0.000004
v -0.000001 -0.000000 0.000004
v -0.000001 -0.000000 0.000004
v -0.000001 -0.000000 0.000004
v -0.000001 -0.000000 0.000004
v -0.000001 -0.000000 0.000004
v -0.000001 -0.000000 0.000004
v -0.000001 -0.000000 0.000004
v -0.000001 -0.000000 0.000004
v -0.000001 -0.000000 0.000004
v -0.000001 -0.000000 0.000004
v -0.000001 -0.000000 0.000004
v -0.000001 -0.000000 0.000004
v -0.000001 -0.000000 0.000004
v -0.000001 -0.000000 0.000004
v -0.000001 -0.000000 0.000004
vt 0.235902 0.381623
vt 0.201635 0.228375
vt 0.204221 0.227470
vt 0.256095 0.375662
vt 0.375872 0.193273
vt 0.217006 0.201166
vt 0.215015 0.198658
vt 0.373388 0.172092
vt 0.018210 0.236452
vt 0.173246 0.211963
vt 0.173985 0.214600
vt 0.022879 0.256972
vt 0.325974 0.329992
vt 0.211919 0.219981
vt 0.212696 0.217072
vt 0.339666 0.313745
vt 0.375872 0.214603
vt 0.217144 0.203939
vt 0.215149 0.385193
vt 0.198961 0.228973
vt 0.310633 0.344398
vt 0.211099 0.223032
vt 0.373374 0.235890
vt 0.216207 0.206659
vt 0.194119 0.386322
vt 0.196234 0.229256
vt 0.063782 0.329233
vt 0.178466 0.224420
vt 0.180760 0.225922
vt 0.078834 0.343633
vt 0.351341 0.111695
vt 0.211736 0.190956
vt 0.210079 0.188698
vt 0.339483 0.093732
vt 0.293716 0.356921
vt 0.208981 0.224769
vt 0.368426 0.256696
vt 0.216066 0.209470
vt 0.173247 0.385006
vt 0.193478 0.230345
vt 0.050507 0.313176
vt 0.176637 0.222418
vt 0.361027 0.130920
vt 0.213119 0.193393
vt 0.275453 0.367390
vt 0.206674 0.226248
vt 0.152671 0.381268
vt 0.190776 0.230015
vt 0.039193 0.295682
vt 0.175033 0.220231
vt 0.361087 0.276788
vt 0.215242 0.212129
vt 0.368410 0.151145
vt 0.214210 0.195974
vt 0.132667 0.375158
vt 0.188136 0.229350
vt 0.015966 0.215574
vt 0.172454 0.209314
vt 0.183007 0.227449
vt 0.095497 0.356210
vt 0.029906 0.276805
vt 0.175026 0.217133
vt 0.351457 0.295891
vt 0.214113 0.214675
vt 0.113508 0.366759
vt 0.185591 0.228382
vt 0.464417 0.139058
vt 0.537292 0.058009
vt 0.542853 0.063009
vt 0.471812 0.137494
vt 0.548392 0.068069
vt 0.478098 0.136306
vt 0.553891 0.073244
vt 0.483828 0.135531
vt 0.559328 0.078584
vt 0.489132 0.135163
vt 0.564680 0.084130
vt 0.494051 0.135180
vt 0.569918 0.089923
vt 0.498595 0.135559
vt 0.575014 0.095995
vt 0.502743 0.136277
vt 0.579936 0.102375
vt 0.506509 0.137287
vt 0.584651 0.109088
vt 0.509885 0.138560
vt 0.589124 0.116154
vt 0.512860 0.140062
vt 0.593320 0.123589
vt 0.515440 0.141791
vt 0.597204 0.131407
vt 0.517600 0.143668
vt 0.600736 0.139619
vt 0.519327 0.145651
vt 0.603881 0.148232
vt 0.520612 0.147696
vt 0.606600 0.157252
vt 0.521444 0.149759
vt 0.608855 0.166685
vt 0.521823 0.151803
vt 0.610606 0.176532
vt 0.521708 0.153750
vt 0.611815 0.186797
vt 0.521103 0.155576
vt 0.612440 0.197481
vt 0.520005 0.157234
vt 0.612440 0.208588
vt 0.518436 0.158684
vt 0.611772 0.220118
vt 0.516381 0.159850
vt 0.610391 0.232075
vt 0.513843 0.160668
vt 0.608248 0.244463
vt 0.510829 0.161071
vt 0.605293 0.257286
vt 0.507351 0.160989
vt 0.601470 0.270551
vt 0.503426 0.160345
vt 0.596719 0.284265
vt 0.499075 0.159061
vt 0.590974 0.298438
vt 0.494312 0.157051
vt 0.584162 0.313081
vt 0.489145 0.154227
vt 0.576202 0.328205
vt 0.483596 0.150492
vt 0.567005 0.343826
vt 0.477528 0.145710
vt 0.471065 0.139794
vt 0.556472 0.359958
vt 0.544492 0.376618
vt 0.577457 0.605659
vt 0.573930 0.623392
vt 0.567010 0.640096
vt 0.556965 0.655129
vt 0.544181 0.667914
vt 0.529147 0.677959
vt 0.512443 0.684878
vt 0.494710 0.688406
vt 0.476629 0.688406
vt 0.458896 0.684878
vt 0.442192 0.677959
vt 0.427159 0.667914
vt 0.414374 0.655129
vt 0.404329 0.640096
vt 0.397410 0.623392
vt 0.393882 0.605659
vt 0.393882 0.587578
vt 0.397410 0.569845
vt 0.404329 0.553141
vt 0.414374 0.538107
vt 0.427159 0.525322
vt 0.442192 0.515277
vt 0.458897 0.508358
vt 0.476630 0.504831
vt 0.494710 0.504831
vt 0.512444 0.508358
vt 0.529148 0.515277
vt 0.544181 0.525322
vt 0.556966 0.538107
vt 0.567011 0.553141
vt 0.573930 0.569845
vt 0.577457 0.587578
vt 0.711196 0.358206
vt 0.726571 0.364575
vt 0.740408 0.373820
vt 0.752176 0.385588
vt 0.761422 0.399426
vt 0.767791 0.414801
vt 0.771038 0.431123
vt 0.771037 0.447765
vt 0.767791 0.464088
vt 0.761422 0.479463
vt 0.752176 0.493301
vt 0.740408 0.505068
vt 0.726571 0.514314
vt 0.711195 0.520683
vt 0.694873 0.523929
vt 0.678231 0.523929
vt 0.661909 0.520683
vt 0.646534 0.514314
vt 0.632696 0.505068
vt 0.620929 0.493300
vt 0.611683 0.479463
vt 0.605314 0.464088
vt 0.602067 0.447765
vt 0.602067 0.431123
vt 0.605314 0.414801
vt 0.611683 0.399426
vt 0.620928 0.385589
vt 0.632696 0.373821
vt 0.646534 0.364575
vt 0.661909 0.358206
vt 0.678231 0.354959
vt 0.694874 0.354959
vn -0.918300 0.182700 -0.351100
vn -0.917900 0.184700 -0.351100
vn -0.936300 0.000000 -0.351100
vn 0.520200 -0.778500 -0.351100
vn 0.524700 -0.775500 -0.351100
vn 0.662100 -0.662100 -0.351100
vn 0.918300 0.182700 -0.351100
vn 0.917900 0.184700 -0.351100
vn 0.865000 0.358300 -0.351100
vn -0.662100 -0.662100 -0.351100
vn -0.651600 -0.672400 -0.351100
vn -0.515100 -0.781900 -0.351100
vn -0.520200 -0.778500 -0.351100
vn 0.358300 -0.865000 -0.351100
vn 0.354800 -0.866500 -0.351100
vn -0.865000 0.358300 -0.351100
vn -0.778500 -0.520200 -0.351100
vn -0.775500 -0.524700 -0.351100
vn 0.182700 -0.918300 -0.351100
vn -0.778500 0.520200 -0.351100
vn -0.781900 0.515100 -0.351100
vn 0.358300 0.865000 -0.351100
vn 0.354800 0.866500 -0.351100
vn 0.182700 0.918300 -0.351100
vn 0.918300 -0.182700 -0.351100
vn 0.918700 -0.180700 -0.351100
vn 0.936300 0.000000 -0.351100
vn -0.865000 -0.358300 -0.351100
vn 0.000000 -0.936300 -0.351100
vn -0.662100 0.662100 -0.351100
vn 0.520200 0.778500 -0.351100
vn 0.524700 0.775500 -0.351100
vn 0.865000 -0.358300 -0.351100
vn -0.918300 -0.182700 -0.351100
vn -0.918700 -0.180700 -0.351100
vn -0.520200 0.778500 -0.351100
vn -0.515100 0.781900 -0.351100
vn 0.662100 0.662100 -0.351100
vn 0.672400 0.651600 -0.351100
vn -0.182700 -0.918300 -0.351100
vn -0.184700 -0.917900 -0.351100
vn 0.778500 -0.520200 -0.351100
vn 0.775500 -0.524700 -0.351100
vn -0.358300 0.865000 -0.351100
vn 0.000000 0.936300 -0.351100
vn 0.778500 0.520200 -0.351100
vn 0.781900 0.515100 -0.351100
vn -0.358300 -0.865000 -0.351100
vn -0.182700 0.918300 -0.351100
vn -0.184700 0.917900 -0.351100
vn 0.727900 0.000000 -0.685700
vn 1.000000 0.000000 0.000000
vn 0.980800 -0.195100 0.000000
vn 0.713900 -0.142000 -0.685700
vn 0.923900 -0.382700 0.000000
vn 0.672500 -0.278500 -0.685700
vn 0.831400 -0.555600 0.000000
vn 0.605200 -0.404400 -0.685700
vn 0.707100 -0.707100 0.000000
vn 0.514700 -0.514700 -0.685700
vn 0.555600 -0.831400 0.000000
vn 0.404400 -0.605200 -0.685700
vn 0.382700 -0.923900 0.000000
vn 0.278500 -0.672500 -0.685700
vn 0.195100 -0.980800 0.000000
vn 0.142000 -0.713900 -0.685700
vn 0.000000 -1.000000 0.000000
vn 0.000000 -0.727900 -0.685700
vn -0.195100 -0.980800 0.000000
vn -0.142000 -0.713900 -0.685700
vn -0.382700 -0.923900 0.000000
vn -0.278500 -0.672500 -0.685700
vn -0.555600 -0.831400 0.000000
vn -0.404400 -0.605200 -0.685700
vn -0.707100 -0.707100 0.000000
vn -0.514700 -0.514700 -0.685700
vn -0.831400 -0.555600 0.000000
vn -0.605200 -0.404400 -0.685700
vn -0.923900 -0.382700 0.000000
vn -0.672500 -0.278500 -0.685700
vn -0.980800 -0.195100 0.000000
vn -0.713900 -0.142000 -0.685700
vn -1.000000 0.000000 0.000000
vn -0.727900 0.000000 -0.685700
vn -0.980800 0.195100 0.000000
vn -0.713900 0.142000 -0.685700
vn -0.923900 0.382700 0.000000
vn -0.672500 0.278500 -0.685700
vn -0.831400 0.555600 0.000000
vn -0.605200 0.404400 -0.685700
vn -0.707100 0.707100 0.000000
vn -0.514700 0.514700 -0.685700
vn -0.555600 0.831400 0.000000
vn -0.404400 0.605200 -0.685700
vn -0.382700 0.923900 0.000000
vn -0.278500 0.672500 -0.685700
vn -0.195100 0.980800 0.000000
vn -0.142000 0.713900 -0.685700
vn 0.000000 1.000000 0.000000
vn 0.000000 0.727900 -0.685700
vn 0.195100 0.980800 0.000000
vn 0.142000 0.713900 -0.685700
vn 0.382700 0.923900 0.000000
vn 0.278500 0.672500 -0.685700
vn 0.555600 0.831400 0.000000
vn 0.404400 0.605200 -0.685700
vn 0.707100 0.707100 0.000000
vn 0.514700 0.514700 -0.685700
vn 0.831400 0.555600 0.000000
vn 0.605200 0.404400 -0.685700
vn 0.923900 0.382700 0.000000
vn 0.672500 0.278500 -0.685700
vn 0.713900 0.142000 -0.685700
vn 0.980800 0.195100 0.000000
vn 0.000000 0.000000 1.000000
s 1
f 33/1/1 192/2/2 10/3/3 1/4/3
f 13/5/4 172/6/5 173/7/6 14/8/6
f 19/9/7 178/10/8 179/11/9 20/12/9
f 5/13/10 165/14/11 166/15/12 6/16/13
f 12/17/14 171/18/15 172/6/5 13/5/4
f 32/19/16 191/20/16 192/2/2 33/1/1
f 4/21/17 164/22/18 165/14/11 5/13/10
f 11/23/19 170/24/19 171/18/15 12/17/14
f 31/25/20 190/26/21 191/20/16 32/19/16
f 24/27/22 183/28/23 184/29/24 25/30/24
f 17/31/25 176/32/26 177/33/27 18/34/27
f 3/35/28 163/36/28 164/22/18 4/21/17
f 9/37/29 169/38/29 170/24/19 11/23/19
f 30/39/30 189/40/30 190/26/21 31/25/20
f 23/41/31 182/42/32 183/28/23 24/27/22
f 16/43/33 175/44/33 176/32/26 17/31/25
f 2/45/34 162/46/35 163/36/28 3/35/28
f 29/47/36 188/48/37 189/40/30 30/39/30
f 22/49/38 181/50/39 182/42/32 23/41/31
f 8/51/40 168/52/41 169/38/29 9/37/29
f 15/53/42 174/54/43 175/44/33 16/43/33
f 28/55/44 187/56/44 188/48/37 29/47/36
f 1/4/3 10/3/3 162/46/35 2/45/34
f 18/57/27 177/58/27 178/10/8 19/9/7
f 25/30/24 184/29/24 185/59/45 26/60/45
f 21/61/46 180/62/47 181/50/39 22/49/38
f 7/63/48 167/64/48 168/52/41 8/51/40
f 14/8/6 173/7/6 174/54/43 15/53/42
f 27/65/49 186/66/50 187/56/44 28/55/44
f 6/16/13 166/15/12 167/64/48 7/63/48
f 26/60/45 185/59/45 186/66/50 27/65/49
f 20/12/9 179/11/9 180/62/47 21/61/46
f 34/67/51 35/68/52 37/69/53 36/70/54
f 36/70/54 37/69/53 39/71/55 38/72/56
f 38/72/56 39/71/55 41/73/57 40/74/58
f 40/74/58 41/73/57 43/75/59 42/76/60
f 42/76/60 43/75/59 45/77/61 44/78/62
f 44/78/62 45/77/61 47/79/63 46/80/64
f 46/80/64 47/79/63 49/81/65 48/82/66
f 48/82/66 49/81/65 51/83/67 50/84/68
f 50/84/68 51/83/67 53/85/69 52/86/70
f 52/86/70 53/85/69 55/87/71 54/88/72
f 54/88/72 55/87/71 57/89/73 56/90/74
f 56/90/74 57/89/73 59/91/75 58/92/76
f 58/92/76 59/91/75 61/93/77 60/94/78
f 60/94/78 61/93/77 63/95/79 62/96/80
f 62/96/80 63/95/79 65/97/81 64/98/82
f 64/98/82 65/97/81 67/99/83 66/100/84
f 66/100/84 67/99/83 69/101/85 68/102/86
f 68/102/86 69/101/85 71/103/87 70/104/88
f 70/104/88 71/103/87 73/105/89 72/106/90
f 72/106/90 73/105/89 75/107/91 74/108/92
f 74/108/92 75/107/91 77/109/93 76/110/94
f 76/110/94 77/109/93 79/111/95 78/112/96
f 78/112/96 79/111/95 81/113/97 80/114/98
f 80/114/98 81/113/97 83/115/99 82/116/100
f 82/116/100 83/115/99 85/117/101 84/118/102
f 84/118/102 85/117/101 87/119/103 86/120/104
f 86/120/104 87/119/103 89/121/105 88/122/106
f 88/122/106 89/121/105 91/123/107 90/124/108
f 90/124/108 91/123/107 93/125/109 92/126/110
f 92/126/110 93/125/109 95/127/111 94/128/112
f 96/129/113 97/130/114 35/131/52 34/67/51
f 94/128/112 95/127/111 97/130/114 96/129/113
f 34/67/51 36/70/54 38/72/56 40/74/58 42/76/60 44/78/62 46/80/64 48/82/66 50/84/68 52/86/70 54/88/72 56/90/74 58/92/76 60/94/78 62/96/80 64/98/82 66/100/84 68/102/86 70/104/88 72/106/90 74/108/92 76/110/94 78/112/96 80/114/98 82/116/100 84/118/102 86/120/104 88/122/106 90/124/108 92/126/110 94/128/112 96/129/113
f 131/132/115 130/133/115 161/134/115 160/135/115 159/136/115 158/137/115 157/138/115 156/139/115 155/140/115 154/141/115 153/142/115 152/143/115 151/144/115 150/145/115 149/146/115 148/147/115 147/148/115 146/149/115 145/150/115 144/151/115 143/152/115 142/153/115 141/154/115 140/155/115 139/156/115 138/157/115 137/158/115 136/159/115 135/160/115 134/161/115 133/162/115 132/163/115
f 98/164/115 99/165/115 100/166/115 101/167/115 102/168/115 103/169/115 104/170/115 105/171/115 106/172/115 107/173/115 108/174/115 109/175/115 110/176/115 111/177/115 112/178/115 113/179/115 114/180/115 115/181/115 116/182/115 117/183/115 118/184/115 119/185/115 120/186/115 121/187/115 122/188/115 123/189/115 124/190/115 125/191/115 126/192/115 127/193/115 128/194/115 129/195/115
